<?xml version="1.0" encoding="UTF-8"?>
<svg id="_ÉåÉCÉÑÅ__1" data-name="ÉåÉCÉÑÅ[_1" xmlns="http://www.w3.org/2000/svg" viewBox="0 0 225.89 226.49">
  <defs>
    <style>
      .cls-1 {
        fill: #1f1f1f;
      }
    </style>
  </defs>
  <path class="cls-1" d="M168.34,185.18c0,19.2-13.14,34.82-29.3,34.82s-29.3-15.62-29.3-34.82c0-1.8-1.46-3.25-3.25-3.25H28.66V43.47h87.46l6.5-6.5H25.41c-1.8,0-3.25,1.46-3.25,3.25v141.71H3.25c-1.79,0-3.25,1.45-3.25,3.25,0,22.78,16.06,41.32,35.8,41.32h103.24c19.74,0,35.8-18.54,35.8-41.32v-67.83l-6.5,6.5v61.33ZM35.8,219.99c-15.23,0-27.79-13.89-29.17-31.57h96.72c.9,13.25,7.24,24.77,16.43,31.57H35.8Z"/>
  <rect class="cls-1" x="93.29" y="57.28" width="96.01" height="6.5" transform="translate(-1.42 117.62) rotate(-44.99)"/>
  <path class="cls-1" d="M222.38,37.61L188.28,3.51c-4.69-4.68-12.31-4.68-17,0l-98.56,98.56c-.72.81-1.32,1.55-1.42,2.44l-5.59,52.09c-.1.98.24,1.95.93,2.64.61.61,1.44.95,2.3.95.12,0,.23,0,.35-.02l52.09-5.59c.91-.1,1.86-.81,2.43-1.42l98.56-98.56c4.69-4.69,4.69-12.31,0-17ZM72.61,153.28l4.44-41.32,36.89,36.89-41.32,4.43ZM217.78,50.01l-96.75,96.75-41.9-41.9L175.88,8.11c2.15-2.15,5.65-2.15,7.8,0l34.1,34.1c1.04,1.04,1.62,2.43,1.62,3.9s-.57,2.86-1.62,3.9Z"/>
</svg>