<?xml version="1.0" encoding="UTF-8"?>
<svg id="_ÉåÉCÉÑÅ__1" data-name="ÉåÉCÉÑÅ[_1" xmlns="http://www.w3.org/2000/svg" viewBox="0 0 226.5 137.05">
  <defs>
    <style>
      .cls-1 {
        fill: #1f1f1f;
      }
    </style>
  </defs>
  <path class="cls-1" d="M225.99,13.53c-1.29-4.18-4.78-7.17-9.11-7.8L182.1.62c-14.36-2.1-28.93,1.14-41.04,9.14l-30.9,20.41c-4.39-5.7-8.25-11-11.3-15.19-6.5-8.93-18.53-11.35-27.99-5.63l-12.04,7.28-18.69,10.34c-1.13.62-1.78,1.85-1.66,3.14.12,1.28.98,2.38,2.2,2.79l17.3,5.84c.56,4.78,1.4,9.32,2.52,13.64l-51.88,10.31c-.06.01-.12.02-.17.04-4.23,1.09-7.39,4.43-8.23,8.72-.84,4.28.81,8.55,4.31,11.14,4.79,3.56,11.42,6.92,20.12,8.17,10.13,9.74,19.9,13.04,28.14,13.37,7.93,3.63,15.57,4.94,22.47,4.94,13.91,0,24.74-5.31,28.62-7.5,16.16,6.23,31.47,6.27,36.77,6.06l19.51,28.02c.61.87,1.61,1.39,2.67,1.39.03,0,.06,0,.09,0,6.69-.19,19.2-4.74,20.05-20.41.7-.26,1.4-.58,2.08-.96,4.52-2.54,7.33-7.24,8.39-13.97.19-.11.38-.21.57-.32,7.68-4.65,9.06-13.43,9.12-13.8.26-1.75-.93-3.39-2.68-3.68-.13-.02-13.77-2.36-42.67-10.58-1.3-.37-2.63-.88-3.97-1.47,2.53-1.31,5.18-2.9,7.91-4.81,1.04.09,2.1.15,3.16.15,2.8,0,5.66-.36,8.45-1.24,6.39-2.02,11.36-6.4,14.79-13.04,1.32-.33,2.65-.74,3.95-1.25,8.07-3.16,14.1-9.35,17.93-18.39,5.41-2.23,9.65-5.21,12.89-8.19,3.2-2.95,4.39-7.37,3.11-11.54ZM49.73,29.09l7.4-4.1c.02,2.27.1,4.49.23,6.68l-7.63-2.58ZM67.05,101.8c5.28-1.96,8.47-4.44,8.56-4.51l-4.06-5.08c-.74.59-16.63,12.74-36.26-1.04,6.55-.38,13.98-1.91,22.35-5.09l-2.31-6.08c-23.72,9.01-38.62,3.54-46.94-2.64-1.49-1.1-2.16-2.85-1.8-4.67.36-1.81,1.62-3.17,3.39-3.66l52.37-10.41c3.85,11.21,9.8,20.65,17.86,28.26,4.99,4.72,10.42,8.37,15.91,11.21-6.21,2.63-16.88,5.8-29.08,3.7ZM218.48,20.28c-7.62,7.02-21.86,14.04-46.4,7.58l-1.65,6.29c12.5,3.29,22.67,3.37,30.88,1.72-2.96,4.59-6.84,7.85-11.59,9.72-13.56,5.32-30.08-2.08-30.24-2.15l-2.71,5.91c.56.26,10.37,4.68,21.88,4.68.34,0,.69-.01,1.03-.02-2.25,2.78-5,4.69-8.3,5.74-11.48,3.64-25.57-4.39-25.71-4.47l-3.27,5.62c.33.19,4.38,2.51,10.1,4.28-13.63,7.63-23.5,6.23-23.61,6.21l-.52,3.21-.54,3.2c.17.03,1.33.21,3.31.21,3.17,0,8.45-.48,15.03-2.82,3.31,1.96,6.59,3.49,9.79,4.4,21.07,6,33.96,8.87,39.76,10.05-.85,2.01-2.42,4.58-5.17,6.23-4.03,2.41-9.69,2.37-16.82-.11l-2.14,6.14c5.45,1.9,10.33,2.59,14.62,2.09-.92,2.86-2.37,4.9-4.37,6.03-5.43,3.08-13.58-.65-13.66-.69l-2.77,5.88c.3.14,5.19,2.4,10.89,2.5-1.18,9.71-8.49,12.1-11.94,12.68l-19.45-27.94c-.66-.95-1.8-1.49-2.95-1.38-.34.03-34.49,2.72-57.36-18.92-14.44-13.66-21.49-34.12-20.98-60.82l10.58-6.4c6.55-3.95,14.87-2.28,19.37,3.9,3.02,4.14,6.8,9.34,11.12,14.95l-10.6,7,3.58,5.42,46.93-30.99c10.77-7.11,23.74-10,36.51-8.13l34.79,5.1c1.85.27,3.28,1.5,3.84,3.29.55,1.77.06,3.58-1.3,4.84Z"/>
  <path class="cls-1" d="M75.36,21.24c-2.3-.54-4.6.89-5.15,3.19-.54,2.3.89,4.6,3.19,5.15,2.3.54,4.6-.89,5.15-3.19.54-2.3-.89-4.6-3.19-5.15Z"/>
</svg>