<?xml version="1.0" encoding="UTF-8"?>
<svg id="_ÉåÉCÉÑÅ__1" data-name="ÉåÉCÉÑÅ[_1" xmlns="http://www.w3.org/2000/svg" viewBox="0 0 226.5 197.97">
  <defs>
    <style>
      .cls-1 {
        fill: #1f1f1f;
      }
    </style>
  </defs>
  <path class="cls-1" d="M96.23,58.07c2.04-5.02,3.07-10.33,3.07-15.82C99.29,18.95,80.34,0,57.04,0S14.79,18.95,14.79,42.25c0,5.48,1.03,10.79,3.06,15.82C6.48,68.83,0,83.79,0,99.5c0,27.51,19.58,50.54,45.54,55.88v-6.67c-22.34-5.22-39.04-25.29-39.04-49.21,0-14.62,6.34-28.52,17.4-38.14,1.1-.96,1.43-2.53.81-3.84-2.27-4.8-3.42-9.93-3.42-15.26,0-19.71,16.04-35.75,35.75-35.75s35.75,16.04,35.75,35.75c0,5.33-1.15,10.47-3.42,15.26-.62,1.32-.29,2.89.81,3.84,11.06,9.62,17.4,23.52,17.4,38.14,0,23.91-16.7,43.98-39.04,49.21v6.67c25.96-5.34,45.54-28.36,45.54-55.88,0-15.7-6.48-30.67-17.86-41.43Z"/>
  <polygon class="cls-1" points="88.36 101.02 83.76 96.43 60.29 119.89 60.29 73.14 53.79 73.14 53.79 95.07 34.69 75.97 30.1 80.57 53.79 104.26 53.79 197.97 60.29 197.97 60.29 129.09 88.36 101.02"/>
  <path class="cls-1" d="M215.71,104.95h-65.03c-5.95,0-10.79,4.84-10.79,10.79v28.78l-24.25,18.85c-.96.75-1.26,1.98-1.26,3.14v30.39h6.5v-27.71h19v17.92h6.5v-17.92h49.14v28.79h6.5v-31.26l17.96-13.96v24.05h6.5v-61.07c0-5.95-4.84-10.79-10.79-10.79ZM146.4,115.74c0-2.36,1.92-4.29,4.29-4.29h65.03c2.36,0,4.29,1.92,4.29,4.29v27.12h-73.6v-27.12ZM196.63,162.69h-69.51l17.14-13.32h69.51l-17.14,13.32Z"/>
</svg>