<?xml version="1.0" encoding="UTF-8"?>
<svg id="_ÉåÉCÉÑÅ__1" data-name="ÉåÉCÉÑÅ[_1" xmlns="http://www.w3.org/2000/svg" viewBox="0 0 226.5 170.57">
  <defs>
    <style>
      .cls-1 {
        fill: #1f1f1f;
      }
    </style>
  </defs>
  <path class="cls-1" d="M225.77,92.67c-.58-.71-1.44-1.15-2.36-1.2-.22-.01-19.31-.99-39.44-3.86,10.97-8.06,17.98-15.42,18.65-16.13.76-.8,1.05-1.94.79-3.01-.26-1.07-1.06-1.93-2.1-2.29L95.14,29.73c-4.73-5.8-9.35-11.85-13.76-18.01C72.88-.16,56.98-3.5,44.41,3.97l-16.76,9.95L1.7,28c-1.13.61-1.79,1.84-1.69,3.12.11,1.28.96,2.38,2.17,2.8l24.46,8.48c5.51,58.27,38.39,81.85,59.22,91.01,4.53,1.99,9.12,3.59,13.69,4.84l-3.77,16.19-20.13,1.52.49,6.48,22.51-1.7c1.42-.11,2.6-1.12,2.92-2.5l4.31-18.48c3.42.7,6.8,1.21,10.12,1.53l-4.34,21.28-20.06,1.51.49,6.48,22.51-1.7c1.45-.11,2.65-1.17,2.94-2.59l5-24.56c14.92.43,27.91-2.84,35.45-8.5l24.04,22.4c.61.57,1.4.87,2.22.87.2,0,.41-.02.61-.06,1.18-.23,11.19-2.75,13.4-23.11,1.32-.27,2.62-.69,3.88-1.3,5.86-2.82,9.52-8.88,10.89-18.02.43-.22.86-.45,1.28-.7,10.17-6.05,12.08-17.61,12.16-18.09.14-.91-.11-1.84-.69-2.55ZM11.27,30.2l14.6-7.93c-.06,4.53.03,8.89.25,13.08l-14.85-5.15ZM210.92,107.76c-5.93,3.5-14.12,3.42-24.32-.23l-2.19,6.12c5.92,2.11,11.34,3.17,16.23,3.17,1.84,0,3.59-.16,5.28-.45-1.25,4.99-3.47,8.28-6.61,9.8-6.36,3.07-16.01-1.4-19.19-3.39l-3.45,5.51c.41.26,7.22,4.46,14.99,5.28-1.31,10.45-4.88,14.4-6.83,15.79l-24.55-22.87c-1.28-1.19-3.27-1.16-4.5.07-8.71,8.64-37.68,13.93-67.31.9-21.97-9.66-58.28-36.62-56.03-108.84l15.28-9.07c9.65-5.73,21.84-3.17,28.37,5.95,4.67,6.53,9.58,12.94,14.6,19.06.38.47.89.82,1.46,1.01l102.06,35.04c-10.5,9.79-41.93,35.93-74.16,32.13-19.88-2.35-36.96-15.78-50.77-39.91l-5.64,3.23c14.9,26.02,33.63,40.54,55.68,43.13,21.21,2.51,41.56-6.41,56.84-16.21,17.18,2.81,35.03,4.2,42.85,4.72-1.17,3.04-3.55,7.37-8.08,10.04Z"/>
  <path class="cls-1" d="M49.85,19.39c-3.17-.77-6.37,1.17-7.15,4.35-.77,3.17,1.17,6.37,4.35,7.15,3.17.77,6.37-1.17,7.15-4.35.77-3.17-1.17-6.37-4.35-7.15Z"/>
</svg>